<mxfile host="app.diagrams.net" agent="Mozilla/5.0 (Windows NT 10.0; Win64; x64) AppleWebKit/537.36 (KHTML, like Gecko) Chrome/141.0.0.0 Safari/537.36" version="28.2.7">
  <diagram name="Page-1" id="5FOJF0gd9t_eEFJKqArJ">
    <mxGraphModel dx="1366" dy="735" grid="1" gridSize="10" guides="1" tooltips="1" connect="1" arrows="1" fold="1" page="1" pageScale="1" pageWidth="850" pageHeight="1100" math="0" shadow="0">
      <root>
        <mxCell id="0" />
        <mxCell id="1" parent="0" />
        <mxCell id="czRxJOPBDMhskjSh1-7e-1" value="User" style="swimlane;whiteSpace=wrap;html=1;shadow=1;swimlaneLine=1;labelBackgroundColor=none;convertToSvg=1;fontSize=13;" vertex="1" parent="1">
          <mxGeometry x="70" y="90" width="200" height="240" as="geometry" />
        </mxCell>
        <mxCell id="czRxJOPBDMhskjSh1-7e-2" value="DocumentID: string" style="rounded=0;whiteSpace=wrap;html=1;shadow=1;swimlaneLine=1;labelBackgroundColor=none;convertToSvg=1;fontSize=13;" vertex="1" parent="czRxJOPBDMhskjSh1-7e-1">
          <mxGeometry x="20" y="30" width="160" height="30" as="geometry" />
        </mxCell>
        <mxCell id="czRxJOPBDMhskjSh1-7e-9" value="username: string" style="text;html=1;whiteSpace=wrap;align=left;verticalAlign=middle;rounded=0;shadow=1;swimlaneLine=1;labelBackgroundColor=none;convertToSvg=1;fontSize=13;" vertex="1" parent="czRxJOPBDMhskjSh1-7e-1">
          <mxGeometry x="20" y="80" width="160" height="30" as="geometry" />
        </mxCell>
        <mxCell id="czRxJOPBDMhskjSh1-7e-10" value="bio: string" style="text;html=1;whiteSpace=wrap;align=left;verticalAlign=middle;rounded=0;shadow=1;swimlaneLine=1;labelBackgroundColor=none;convertToSvg=1;fontSize=13;" vertex="1" parent="czRxJOPBDMhskjSh1-7e-1">
          <mxGeometry x="20" y="120" width="160" height="30" as="geometry" />
        </mxCell>
        <mxCell id="czRxJOPBDMhskjSh1-7e-11" value="profilePic: string (url)" style="text;html=1;whiteSpace=wrap;align=left;verticalAlign=middle;rounded=0;shadow=1;swimlaneLine=1;labelBackgroundColor=none;convertToSvg=1;fontSize=13;" vertex="1" parent="czRxJOPBDMhskjSh1-7e-1">
          <mxGeometry x="20" y="160" width="160" height="30" as="geometry" />
        </mxCell>
        <mxCell id="czRxJOPBDMhskjSh1-7e-21" value="..." style="text;html=1;whiteSpace=wrap;align=left;verticalAlign=middle;rounded=0;shadow=1;swimlaneLine=1;labelBackgroundColor=none;convertToSvg=1;fontSize=13;" vertex="1" parent="czRxJOPBDMhskjSh1-7e-1">
          <mxGeometry x="20" y="200" width="160" height="30" as="geometry" />
        </mxCell>
        <mxCell id="czRxJOPBDMhskjSh1-7e-12" value="Recipe" style="swimlane;whiteSpace=wrap;html=1;shadow=1;swimlaneLine=1;labelBackgroundColor=none;convertToSvg=1;fontSize=13;" vertex="1" parent="1">
          <mxGeometry x="560" y="90" width="450" height="640" as="geometry" />
        </mxCell>
        <mxCell id="czRxJOPBDMhskjSh1-7e-14" value="recipeName: string" style="text;html=1;whiteSpace=wrap;align=left;verticalAlign=middle;rounded=0;shadow=1;swimlaneLine=1;labelBackgroundColor=none;convertToSvg=1;fontSize=13;" vertex="1" parent="czRxJOPBDMhskjSh1-7e-12">
          <mxGeometry x="20" y="130" width="150" height="30" as="geometry" />
        </mxCell>
        <mxCell id="czRxJOPBDMhskjSh1-7e-15" value="ingredientList: {amount: number, unit: string, ingredient: string} [ ]" style="text;html=1;whiteSpace=wrap;align=left;verticalAlign=middle;rounded=0;shadow=1;swimlaneLine=1;labelBackgroundColor=none;convertToSvg=1;fontSize=13;" vertex="1" parent="czRxJOPBDMhskjSh1-7e-12">
          <mxGeometry x="20" y="170" width="350" height="30" as="geometry" />
        </mxCell>
        <mxCell id="czRxJOPBDMhskjSh1-7e-16" value="directionList: string [ ]" style="text;html=1;whiteSpace=wrap;align=left;verticalAlign=middle;rounded=0;shadow=1;swimlaneLine=1;labelBackgroundColor=none;convertToSvg=1;fontSize=13;" vertex="1" parent="czRxJOPBDMhskjSh1-7e-12">
          <mxGeometry x="20" y="210" width="160" height="30" as="geometry" />
        </mxCell>
        <mxCell id="czRxJOPBDMhskjSh1-7e-18" value="authorId: string" style="text;html=1;whiteSpace=wrap;align=left;verticalAlign=middle;rounded=0;shadow=1;swimlaneLine=1;labelBackgroundColor=none;convertToSvg=1;fontSize=13;" vertex="1" parent="czRxJOPBDMhskjSh1-7e-12">
          <mxGeometry x="20" y="90" width="160" height="30" as="geometry" />
        </mxCell>
        <mxCell id="czRxJOPBDMhskjSh1-7e-20" value="DocumentID: string" style="rounded=0;whiteSpace=wrap;html=1;shadow=1;swimlaneLine=1;labelBackgroundColor=none;convertToSvg=1;fontSize=13;" vertex="1" parent="czRxJOPBDMhskjSh1-7e-12">
          <mxGeometry x="20" y="40" width="410" height="30" as="geometry" />
        </mxCell>
        <mxCell id="czRxJOPBDMhskjSh1-7e-28" value="version: number" style="text;html=1;whiteSpace=wrap;align=left;verticalAlign=middle;rounded=0;shadow=1;swimlaneLine=1;labelBackgroundColor=none;convertToSvg=1;fontSize=13;" vertex="1" parent="czRxJOPBDMhskjSh1-7e-12">
          <mxGeometry x="20" y="250" width="160" height="30" as="geometry" />
        </mxCell>
        <mxCell id="czRxJOPBDMhskjSh1-7e-30" value="changelog: {changeType: string, message: string} [ ]" style="text;html=1;whiteSpace=wrap;align=left;verticalAlign=middle;rounded=0;shadow=1;swimlaneLine=1;labelBackgroundColor=none;convertToSvg=1;fontSize=13;" vertex="1" parent="czRxJOPBDMhskjSh1-7e-12">
          <mxGeometry x="21" y="285" width="370" height="30" as="geometry" />
        </mxCell>
        <mxCell id="czRxJOPBDMhskjSh1-7e-34" value="Version subcollection" style="swimlane;whiteSpace=wrap;html=1;shadow=1;swimlaneLine=1;labelBackgroundColor=none;convertToSvg=1;fontSize=13;" vertex="1" parent="czRxJOPBDMhskjSh1-7e-12">
          <mxGeometry x="20" y="360" width="410" height="250" as="geometry" />
        </mxCell>
        <mxCell id="czRxJOPBDMhskjSh1-7e-35" value="recipeName: string" style="text;html=1;whiteSpace=wrap;align=left;verticalAlign=middle;rounded=0;shadow=1;swimlaneLine=1;labelBackgroundColor=none;convertToSvg=1;fontSize=13;" vertex="1" parent="czRxJOPBDMhskjSh1-7e-34">
          <mxGeometry x="10" y="40" width="150" height="30" as="geometry" />
        </mxCell>
        <mxCell id="czRxJOPBDMhskjSh1-7e-36" value="ingredientList: {amount: number, unit: string, ingredient: string} [ ]" style="text;html=1;whiteSpace=wrap;align=left;verticalAlign=middle;rounded=0;shadow=1;swimlaneLine=1;labelBackgroundColor=none;convertToSvg=1;fontSize=13;" vertex="1" parent="czRxJOPBDMhskjSh1-7e-34">
          <mxGeometry x="15" y="85" width="350" height="30" as="geometry" />
        </mxCell>
        <mxCell id="czRxJOPBDMhskjSh1-7e-37" value="directionList: string [ ]" style="text;html=1;whiteSpace=wrap;align=left;verticalAlign=middle;rounded=0;shadow=1;swimlaneLine=1;labelBackgroundColor=none;convertToSvg=1;fontSize=13;" vertex="1" parent="czRxJOPBDMhskjSh1-7e-34">
          <mxGeometry x="15" y="125" width="160" height="30" as="geometry" />
        </mxCell>
        <mxCell id="czRxJOPBDMhskjSh1-7e-38" value="version: number" style="text;html=1;whiteSpace=wrap;align=left;verticalAlign=middle;rounded=0;shadow=1;swimlaneLine=1;labelBackgroundColor=none;convertToSvg=1;fontSize=13;" vertex="1" parent="czRxJOPBDMhskjSh1-7e-34">
          <mxGeometry x="15" y="165" width="160" height="30" as="geometry" />
        </mxCell>
        <mxCell id="czRxJOPBDMhskjSh1-7e-39" value="..." style="text;html=1;whiteSpace=wrap;align=left;verticalAlign=middle;rounded=0;shadow=1;swimlaneLine=1;labelBackgroundColor=none;convertToSvg=1;fontSize=13;" vertex="1" parent="czRxJOPBDMhskjSh1-7e-34">
          <mxGeometry x="15" y="200" width="160" height="30" as="geometry" />
        </mxCell>
        <mxCell id="czRxJOPBDMhskjSh1-7e-40" value="..." style="text;html=1;whiteSpace=wrap;align=left;verticalAlign=middle;rounded=0;shadow=1;swimlaneLine=1;labelBackgroundColor=none;convertToSvg=1;fontSize=13;" vertex="1" parent="czRxJOPBDMhskjSh1-7e-12">
          <mxGeometry x="20" y="320" width="160" height="30" as="geometry" />
        </mxCell>
        <mxCell id="czRxJOPBDMhskjSh1-7e-19" style="edgeStyle=orthogonalEdgeStyle;rounded=0;orthogonalLoop=1;jettySize=auto;html=1;entryX=0;entryY=0.5;entryDx=0;entryDy=0;shadow=1;swimlaneLine=1;labelBackgroundColor=none;convertToSvg=1;fontSize=13;" edge="1" parent="1" source="czRxJOPBDMhskjSh1-7e-2" target="czRxJOPBDMhskjSh1-7e-18">
          <mxGeometry relative="1" as="geometry" />
        </mxCell>
        <mxCell id="czRxJOPBDMhskjSh1-7e-22" value="Cookbooks" style="swimlane;whiteSpace=wrap;html=1;shadow=1;swimlaneLine=1;labelBackgroundColor=none;convertToSvg=1;fontSize=13;" vertex="1" parent="1">
          <mxGeometry x="1070" y="90" width="370" height="250" as="geometry" />
        </mxCell>
        <mxCell id="czRxJOPBDMhskjSh1-7e-23" value="cookbookName: string" style="text;html=1;whiteSpace=wrap;align=left;verticalAlign=middle;rounded=0;shadow=1;swimlaneLine=1;labelBackgroundColor=none;convertToSvg=1;fontSize=13;" vertex="1" parent="czRxJOPBDMhskjSh1-7e-22">
          <mxGeometry x="20" y="130" width="150" height="30" as="geometry" />
        </mxCell>
        <mxCell id="czRxJOPBDMhskjSh1-7e-24" value="RecipeOrder: {recipeId: string, version: number | null} [ ]" style="text;html=1;whiteSpace=wrap;align=left;verticalAlign=middle;rounded=0;shadow=1;swimlaneLine=1;labelBackgroundColor=none;convertToSvg=1;fontSize=13;" vertex="1" parent="czRxJOPBDMhskjSh1-7e-22">
          <mxGeometry x="20" y="170" width="310" height="30" as="geometry" />
        </mxCell>
        <mxCell id="czRxJOPBDMhskjSh1-7e-25" value="..." style="text;html=1;whiteSpace=wrap;align=left;verticalAlign=middle;rounded=0;shadow=1;swimlaneLine=1;labelBackgroundColor=none;convertToSvg=1;fontSize=13;" vertex="1" parent="czRxJOPBDMhskjSh1-7e-22">
          <mxGeometry x="20" y="210" width="160" height="30" as="geometry" />
        </mxCell>
        <mxCell id="czRxJOPBDMhskjSh1-7e-26" value="authorId: string" style="text;html=1;whiteSpace=wrap;align=left;verticalAlign=middle;rounded=0;shadow=1;swimlaneLine=1;labelBackgroundColor=none;convertToSvg=1;fontSize=13;" vertex="1" parent="czRxJOPBDMhskjSh1-7e-22">
          <mxGeometry x="20" y="90" width="160" height="30" as="geometry" />
        </mxCell>
        <mxCell id="czRxJOPBDMhskjSh1-7e-27" value="DocumentID: string" style="rounded=0;whiteSpace=wrap;html=1;shadow=1;swimlaneLine=1;labelBackgroundColor=none;convertToSvg=1;fontSize=13;" vertex="1" parent="czRxJOPBDMhskjSh1-7e-22">
          <mxGeometry x="20" y="40" width="330" height="30" as="geometry" />
        </mxCell>
        <mxCell id="czRxJOPBDMhskjSh1-7e-41" style="edgeStyle=orthogonalEdgeStyle;rounded=0;orthogonalLoop=1;jettySize=auto;html=1;entryX=0;entryY=0.5;entryDx=0;entryDy=0;dashed=1;shadow=1;swimlaneLine=1;labelBackgroundColor=none;convertToSvg=1;fontSize=13;" edge="1" parent="1" source="czRxJOPBDMhskjSh1-7e-20" target="czRxJOPBDMhskjSh1-7e-24">
          <mxGeometry relative="1" as="geometry" />
        </mxCell>
        <mxCell id="czRxJOPBDMhskjSh1-7e-44" value="Subscriptions" style="swimlane;whiteSpace=wrap;html=1;shadow=1;swimlaneLine=1;labelBackgroundColor=none;convertToSvg=1;fontSize=13;" vertex="1" parent="1">
          <mxGeometry x="160" y="460" width="340" height="430" as="geometry" />
        </mxCell>
        <mxCell id="czRxJOPBDMhskjSh1-7e-45" value="DocumentID: string" style="rounded=0;whiteSpace=wrap;html=1;shadow=1;swimlaneLine=1;labelBackgroundColor=none;convertToSvg=1;fontSize=13;" vertex="1" parent="czRxJOPBDMhskjSh1-7e-44">
          <mxGeometry x="20" y="30" width="300" height="30" as="geometry" />
        </mxCell>
        <mxCell id="czRxJOPBDMhskjSh1-7e-46" value="userId: string" style="text;html=1;whiteSpace=wrap;align=left;verticalAlign=middle;rounded=0;shadow=1;swimlaneLine=1;labelBackgroundColor=none;convertToSvg=1;fontSize=13;" vertex="1" parent="czRxJOPBDMhskjSh1-7e-44">
          <mxGeometry x="20" y="75" width="160" height="30" as="geometry" />
        </mxCell>
        <mxCell id="czRxJOPBDMhskjSh1-7e-47" value="customerId: string" style="text;html=1;whiteSpace=wrap;align=left;verticalAlign=middle;rounded=0;shadow=1;swimlaneLine=1;labelBackgroundColor=none;convertToSvg=1;fontSize=13;" vertex="1" parent="czRxJOPBDMhskjSh1-7e-44">
          <mxGeometry x="20" y="110" width="160" height="30" as="geometry" />
        </mxCell>
        <mxCell id="czRxJOPBDMhskjSh1-7e-48" value="status: string" style="text;html=1;whiteSpace=wrap;align=left;verticalAlign=middle;rounded=0;shadow=1;swimlaneLine=1;labelBackgroundColor=none;convertToSvg=1;fontSize=13;" vertex="1" parent="czRxJOPBDMhskjSh1-7e-44">
          <mxGeometry x="20" y="150" width="160" height="30" as="geometry" />
        </mxCell>
        <mxCell id="czRxJOPBDMhskjSh1-7e-52" value="currentPayPeriodStart: timestamp" style="text;html=1;whiteSpace=wrap;align=left;verticalAlign=middle;rounded=0;shadow=1;swimlaneLine=1;labelBackgroundColor=none;convertToSvg=1;fontSize=13;" vertex="1" parent="czRxJOPBDMhskjSh1-7e-44">
          <mxGeometry x="20" y="190" width="270" height="30" as="geometry" />
        </mxCell>
        <mxCell id="czRxJOPBDMhskjSh1-7e-53" value="currentPayPeriodEnd: timestamp" style="text;html=1;whiteSpace=wrap;align=left;verticalAlign=middle;rounded=0;shadow=1;swimlaneLine=1;labelBackgroundColor=none;convertToSvg=1;fontSize=13;" vertex="1" parent="czRxJOPBDMhskjSh1-7e-44">
          <mxGeometry x="20" y="230" width="270" height="30" as="geometry" />
        </mxCell>
        <mxCell id="czRxJOPBDMhskjSh1-7e-54" value="productId: string" style="text;html=1;whiteSpace=wrap;align=left;verticalAlign=middle;rounded=0;shadow=1;swimlaneLine=1;labelBackgroundColor=none;convertToSvg=1;fontSize=13;" vertex="1" parent="czRxJOPBDMhskjSh1-7e-44">
          <mxGeometry x="20" y="270" width="270" height="30" as="geometry" />
        </mxCell>
        <mxCell id="czRxJOPBDMhskjSh1-7e-56" value="priceId: string" style="text;html=1;whiteSpace=wrap;align=left;verticalAlign=middle;rounded=0;shadow=1;swimlaneLine=1;labelBackgroundColor=none;convertToSvg=1;fontSize=13;" vertex="1" parent="czRxJOPBDMhskjSh1-7e-44">
          <mxGeometry x="20" y="310" width="270" height="30" as="geometry" />
        </mxCell>
        <mxCell id="czRxJOPBDMhskjSh1-7e-57" value="cancelAtPeriodEnd: boolean" style="text;html=1;whiteSpace=wrap;align=left;verticalAlign=middle;rounded=0;shadow=1;swimlaneLine=1;labelBackgroundColor=none;convertToSvg=1;fontSize=13;" vertex="1" parent="czRxJOPBDMhskjSh1-7e-44">
          <mxGeometry x="20" y="350" width="270" height="30" as="geometry" />
        </mxCell>
        <mxCell id="czRxJOPBDMhskjSh1-7e-58" value="..." style="text;html=1;whiteSpace=wrap;align=left;verticalAlign=middle;rounded=0;shadow=1;swimlaneLine=1;labelBackgroundColor=none;convertToSvg=1;fontSize=13;" vertex="1" parent="czRxJOPBDMhskjSh1-7e-44">
          <mxGeometry x="20" y="390" width="270" height="30" as="geometry" />
        </mxCell>
        <mxCell id="czRxJOPBDMhskjSh1-7e-51" style="edgeStyle=orthogonalEdgeStyle;rounded=0;orthogonalLoop=1;jettySize=auto;html=1;exitX=1;exitY=0.5;exitDx=0;exitDy=0;" edge="1" parent="1" source="czRxJOPBDMhskjSh1-7e-2">
          <mxGeometry relative="1" as="geometry">
            <mxPoint x="180" y="550" as="targetPoint" />
            <mxPoint x="140" y="150" as="sourcePoint" />
            <Array as="points">
              <mxPoint x="320" y="135" />
              <mxPoint x="320" y="390" />
              <mxPoint x="130" y="390" />
              <mxPoint x="130" y="550" />
            </Array>
          </mxGeometry>
        </mxCell>
      </root>
    </mxGraphModel>
  </diagram>
</mxfile>
